<?xml version="1.0" encoding="utf-8"?>
<!-- Generator: Adobe Illustrator 24.0.0, SVG Export Plug-In . SVG Version: 6.00 Build 0)  -->
<svg version="1.1" id="Capa_1" xmlns="http://www.w3.org/2000/svg" xmlns:xlink="http://www.w3.org/1999/xlink" x="0px" y="0px"
	 viewBox="0 0 700.7 140.7" style="enable-background:new 0 0 700.7 140.7;" xml:space="preserve">
<style type="text/css">
	.st0{fill:#060A0F;}
	.st1{fill:none;}
	.st2{font-family:'Dubai-Regular';}
	.st3{font-size:72px;}
</style>
<g>
	<polygon class="st0" points="136.5,91.6 161.5,66.6 131.1,36.3 84.7,36.3 84.7,47.1 126.6,47.1 146.1,66.6 136.5,76.2 	"/>
	<polygon class="st0" points="93.7,6.1 63.3,36.5 63.3,81.4 74.2,81.4 74.2,41 93.7,21.5 103.3,31.1 118.6,31.1 	"/>
	<polygon class="st0" points="120.3,59.3 120.3,99.7 100.8,119.2 91.2,109.6 75.8,109.6 100.8,134.6 131.1,104.2 131.1,59.3 	"/>
	<polygon class="st0" points="68,93.3 48.5,73.8 58.1,64.3 58.1,49 33.1,73.8 63.5,104.2 108.4,104.2 108.4,93.3 	"/>
</g>
<rect x="192.7" y="39.1" class="st1" width="534" height="105"/>
<text transform="matrix(1 0 0 1 192.7 89.3559)" class="st2 st3">WEBEMPRESA</text>
</svg>
